<svg version="1.1" id="Layer_1" xmlns="http://www.w3.org/2000/svg" xmlns:xlink="http://www.w3.org/1999/xlink" x="0px" y="0px"
	 width="100%" viewBox="0 0 352 352" enable-background="new 0 0 352 352" xml:space="preserve">
<path fill="#000000" opacity="1.000000" stroke="none" 
	d="
M187.463150,171.175995 
	C181.236069,172.397659 179.920715,176.274353 180.161240,182.277420 
	C180.674515,195.088348 180.228287,207.935013 180.418549,220.763428 
	C180.470139,224.241318 179.196762,226.295380 176.250092,227.931854 
	C165.619278,233.835724 155.029556,239.817520 144.527344,245.946381 
	C141.729721,247.579025 139.425613,247.526398 136.644226,245.981659 
	C125.431206,239.754150 114.164101,233.620682 102.829323,227.617981 
	C99.795341,226.011246 98.587425,223.948242 98.626091,220.496536 
	C98.781006,206.667206 98.809654,192.833542 98.615295,179.005264 
	C98.565445,175.458633 99.969353,173.523209 102.904015,171.952713 
	C114.213783,165.900208 125.374527,159.563812 136.770416,153.681168 
	C139.935379,152.047394 140.852539,150.142822 140.816223,146.789642 
	C140.664642,132.793686 140.845154,118.794228 140.708603,104.797951 
	C140.675369,101.390762 141.757446,99.251930 144.821411,97.617271 
	C156.431915,91.422966 167.949768,85.053978 179.465729,78.684242 
	C181.702744,77.446915 183.670547,77.317085 186.033600,78.523880 
	C197.007584,84.128212 208.045502,89.608353 219.095230,95.062607 
	C221.488113,96.243744 222.410370,97.947144 222.397629,100.610817 
	C222.322662,116.274406 222.362808,131.938599 222.384460,147.602554 
	C222.386841,149.324753 222.204498,150.935272 220.244186,152.646851 
	C215.823776,156.910233 210.490707,158.150116 206.055298,161.035889 
	C200.156006,164.874069 193.687256,167.837021 187.463150,171.175995 
M120.194069,229.264343 
	C126.273247,232.483704 132.352432,235.703049 138.512024,238.964996 
	C139.140274,237.686676 139.532623,237.259094 139.535126,236.829269 
	C139.604294,224.858063 139.628510,212.886612 139.676453,200.915268 
	C139.683121,199.252197 138.973083,198.029434 137.550674,197.238647 
	C134.110870,195.326248 130.653793,193.444931 127.424042,191.672043 
	C125.549469,193.232773 126.816238,195.465363 125.122063,196.473724 
	C120.222717,195.241302 120.198204,195.244095 119.653419,190.464706 
	C119.501137,189.128738 119.576172,187.634613 118.255882,186.917770 
	C114.277534,184.757797 110.710480,181.711990 105.326500,180.539352 
	C105.326500,188.832016 106.162872,196.721786 105.136414,204.361252 
	C103.470650,216.758835 107.185326,225.153992 120.194069,229.264343 
M147.282837,135.461349 
	C147.281509,136.960922 147.476089,138.491638 147.243576,139.954468 
	C146.412186,145.184967 148.667511,148.090775 153.399063,150.352509 
	C161.201920,154.082336 168.649979,158.552658 176.265533,162.677719 
	C177.683533,163.445801 179.050537,164.551025 180.821518,164.028488 
	C181.069244,163.701721 181.435822,163.443817 181.437592,163.183411 
	C181.520325,151.025467 181.572174,138.867294 181.624664,126.709152 
	C181.629929,125.488838 181.377045,124.257095 180.275558,123.646736 
	C176.560730,121.588257 173.106033,118.931564 168.958817,118.113014 
	C167.546585,119.434685 168.518005,121.401123 166.765305,122.535797 
	C163.255432,122.025208 160.866180,120.338165 160.908081,116.170876 
	C160.923477,114.640045 160.670380,113.122505 159.181061,112.251556 
	C155.657516,110.190987 152.274384,107.815025 147.283752,106.586052 
	C147.283752,116.236778 147.283752,125.355583 147.282837,135.461349 
M171.291718,104.675087 
	C178.941849,100.480286 186.591965,96.285492 194.399292,92.004501 
	C188.312317,85.418732 183.573563,84.444984 177.010361,87.997658 
	C169.357986,92.139915 161.720795,96.310265 154.077011,100.468414 
	C159.742294,102.959045 163.617294,110.607788 171.291718,104.675087 
M135.510010,162.071609 
	C128.024185,166.482834 119.892021,169.811203 112.645195,175.026260 
	C121.429214,182.396439 123.254128,182.581696 132.350113,177.495651 
	C137.137421,174.818817 141.952881,172.192352 146.751144,169.535080 
	C148.840561,168.377960 151.234039,167.631210 152.764526,165.529053 
	C143.368057,158.851425 142.043121,158.557495 135.510010,162.071609 
M133.320831,184.239532 
	C132.955002,184.750000 132.161194,185.445358 132.289505,185.742355 
	C133.583084,188.736694 142.757111,192.131897 145.637527,190.585205 
	C151.477188,187.449478 157.251266,184.187805 162.993774,180.876434 
	C166.035156,179.122650 169.391113,177.774017 171.950531,175.089340 
	C165.903000,170.442032 160.379715,167.966400 153.318268,172.920563 
	C147.250183,177.177795 140.361084,180.264816 133.320831,184.239532 
M208.808960,104.358742 
	C210.235306,103.096825 212.612823,102.949287 213.364471,100.164726 
	C209.302475,98.397873 205.795258,93.733101 200.919052,95.966690 
	C192.627823,99.764580 184.781937,104.538429 176.774673,108.948944 
	C175.405228,109.703247 174.252106,110.706337 175.381805,112.537506 
	C177.319183,115.677811 185.337036,117.650597 188.659332,115.772316 
	C195.171875,112.090424 201.678375,108.397820 208.808960,104.358742 
z"/>
<path fill="#000000" opacity="1.000000" stroke="none" 
	d="
M187.308548,171.434448 
	C193.687256,167.837021 200.156006,164.874069 206.055298,161.035889 
	C210.490707,158.150116 215.823776,156.910233 219.978607,152.907410 
	C222.867554,151.304047 225.221176,151.932724 227.755402,153.231644 
	C238.132904,158.550690 248.561020,163.774948 259.051666,168.866882 
	C262.116821,170.354675 263.428070,172.258316 263.384460,175.802368 
	C263.199860,190.800064 263.234375,205.802002 263.365936,220.800827 
	C263.394287,224.028687 262.345764,225.975235 259.469025,227.558472 
	C248.523376,233.582520 237.682281,239.798538 226.860794,246.044479 
	C224.481445,247.417801 222.470810,247.714188 219.912231,246.294052 
	C208.695816,240.068375 197.433228,233.918839 186.054840,227.996338 
	C182.574173,226.184647 181.499252,223.829041 181.562302,220.042191 
	C181.770401,207.545639 181.910278,195.035797 181.531265,182.547592 
	C181.378448,177.512589 182.336990,173.797958 187.308548,171.434448 
M188.194946,217.088806 
	C187.823624,220.131851 189.078674,222.096359 191.911774,223.345078 
	C194.335587,224.413422 196.555389,225.934967 198.942154,227.098724 
	C206.491882,230.779907 213.425552,235.699188 221.857010,238.897964 
	C223.091461,225.809235 222.537323,213.230728 222.487259,200.666702 
	C222.482391,199.445480 221.933395,198.310745 220.863068,197.728439 
	C217.008987,195.631607 213.504623,192.771713 209.220810,191.867996 
	C207.706848,193.363419 209.254379,195.521576 207.183655,196.815247 
	C204.998184,196.127045 202.208038,195.426041 202.120651,192.469421 
	C201.855042,183.483292 193.889236,184.187637 188.190018,180.039261 
	C188.190018,192.962997 188.190018,204.569931 188.194946,217.088806 
M222.083328,173.528473 
	C226.367630,170.830856 231.386520,169.313141 235.205002,165.700241 
	C227.770752,159.206482 224.637024,158.758331 216.586609,162.948807 
	C213.936630,164.328217 211.295380,165.731781 208.714340,167.234558 
	C204.339722,169.781662 199.447159,171.513275 195.626053,175.099274 
	C202.896317,181.772644 205.872543,182.260132 213.560394,178.166763 
	C216.198547,176.762085 218.810242,175.307663 222.083328,173.528473 
M225.487686,191.647293 
	C235.603668,187.137543 244.891708,181.185242 254.712418,175.729965 
	C247.963196,169.206421 244.320831,168.616196 237.298553,172.435059 
	C235.547104,173.387527 233.751602,174.259689 232.008499,175.226700 
	C226.002640,178.558517 220.011032,181.915985 213.092316,185.778183 
	C217.692703,188.062149 221.226639,189.816635 225.487686,191.647293 
z"/>
<path fill="#000000" opacity="1.000000" stroke="none" 
	d="
M208.533936,266.331604 
	C214.291199,268.379944 216.916855,272.543060 215.813354,277.363953 
	C214.642120,282.480774 210.361786,285.692413 205.726486,284.932343 
	C201.198929,284.189941 198.281509,280.206238 198.508682,275.076508 
	C198.765045,269.287720 201.754669,266.550659 208.533936,266.331604 
M211.121063,271.720490 
	C209.177277,269.265808 206.868530,268.419495 204.270325,270.594635 
	C201.574524,272.851440 201.649902,275.890228 202.765671,278.831573 
	C203.636642,281.127625 205.683609,282.100861 208.059479,281.512146 
	C211.500351,280.659546 212.078171,277.908447 211.899399,274.862183 
	C211.851105,274.039337 211.624603,273.226898 211.121063,271.720490 
z"/>
<path fill="#000000" opacity="1.000000" stroke="none" 
	d="
M231.887039,269.383057 
	C232.117798,270.589661 232.543335,271.645386 232.187851,272.205109 
	C229.622818,276.243469 229.853836,280.047577 233.976410,283.727936 
	C229.723114,285.244476 228.985718,282.574768 227.715866,280.923828 
	C226.510315,279.356445 225.535873,277.221375 223.181717,277.582001 
	C220.610840,277.975800 221.429230,280.371216 221.159760,282.055725 
	C220.993393,283.095734 220.736038,284.144348 219.477570,284.124847 
	C217.885223,284.100220 217.753143,282.784058 217.744415,281.608582 
	C217.708817,276.819885 217.729599,272.030762 217.729599,266.588776 
	C222.792358,267.276794 227.702286,264.706543 231.887039,269.383057 
M222.284363,269.792816 
	C220.771255,271.687775 220.933517,273.249298 223.499039,273.646027 
	C225.176163,273.905365 227.699051,274.424438 228.166504,272.159027 
	C228.703979,269.554260 226.083130,269.819489 224.418152,269.473816 
	C223.950089,269.376617 223.434662,269.507568 222.284363,269.792816 
z"/>
<path fill="#000000" opacity="1.000000" stroke="none" 
	d="
M172.042023,268.042297 
	C174.124069,271.015167 175.985321,273.706573 177.953903,276.553192 
	C180.133530,273.516235 177.029938,269.303894 181.650574,266.425293 
	C182.731659,272.366150 182.788040,277.777008 181.849548,282.964630 
	C181.363174,285.653015 179.021667,284.244812 177.837967,282.648254 
	C175.884613,280.013641 174.066910,277.278412 171.924759,274.201752 
	C170.238922,277.609833 172.513092,281.542755 168.957794,284.005768 
	C167.276978,278.606689 167.362457,273.109650 168.161865,267.722809 
	C168.421005,265.976593 170.564499,266.661957 172.042023,268.042297 
z"/>
<path fill="#000000" opacity="1.000000" stroke="none" 
	d="
M132.089142,267.298523 
	C134.279694,272.929199 133.033234,278.449127 133.132568,284.722015 
	C127.139946,283.146729 126.695984,277.216736 122.892410,274.508820 
	C121.031723,277.370239 123.898293,281.483856 119.700081,284.674530 
	C118.153748,278.788971 118.338120,273.370483 119.290329,268.210083 
	C119.759056,265.669830 122.253433,267.027100 123.432205,268.586426 
	C125.321609,271.085846 127.012039,273.735657 128.936371,276.540253 
	C131.426926,273.643158 127.849602,269.301453 132.089142,267.298523 
z"/>
<path fill="#000000" opacity="1.000000" stroke="none" 
	d="
M158.863190,269.804443 
	C156.813629,269.583405 155.314804,269.847412 155.543625,271.983490 
	C155.736298,273.781952 157.338211,273.562103 158.645508,273.725311 
	C160.505875,273.957550 162.649475,272.937958 164.428146,275.138214 
	C163.331635,277.770111 160.958878,276.859497 159.041641,277.006378 
	C157.348145,277.136108 155.437027,277.123718 155.545486,279.499390 
	C155.636749,281.498047 157.335312,281.534088 158.876266,281.665436 
	C161.052094,281.850891 163.444214,281.113647 165.526031,282.807892 
	C162.827087,285.100708 154.978928,285.695740 152.975525,283.977173 
	C151.815460,282.982025 150.879639,268.949432 152.317383,268.005341 
	C156.311401,265.382690 160.644119,266.595459 165.408981,267.153809 
	C163.829681,270.732117 161.343460,269.790436 158.863190,269.804443 
z"/>
<path fill="#000000" opacity="1.000000" stroke="none" 
	d="
M145.538040,272.463257 
	C146.594681,270.169891 146.424423,267.408325 149.262375,266.862488 
	C151.059555,268.031647 150.280167,269.317932 149.819489,270.507141 
	C148.316605,274.386597 146.846313,278.281830 145.209381,282.105011 
	C144.113037,284.665588 142.094391,285.778564 140.625244,282.752167 
	C138.275803,277.912415 136.571518,272.759521 135.267822,267.404877 
	C140.862946,269.048889 139.474686,275.103485 142.559433,278.397614 
	C144.369339,276.973114 144.349487,274.604584 145.538040,272.463257 
z"/>
<path fill="#000000" opacity="1.000000" stroke="none" 
	d="
M196.120575,269.709045 
	C192.770554,269.799011 193.134583,271.948242 192.961456,273.966522 
	C192.665436,277.417389 194.099426,281.162750 191.527115,284.454132 
	C188.418671,283.486359 189.154602,281.038330 189.063110,279.067108 
	C188.864243,274.781799 190.435669,269.786530 183.671295,268.031250 
	C188.242691,266.335876 192.422501,266.112061 196.510681,266.820404 
	C198.753235,267.208984 198.494492,268.707611 196.120575,269.709045 
z"/>
<path fill="#000000" opacity="1.000000" stroke="none" 
	d="
M245.038681,267.877686 
	C246.265182,266.821075 247.272385,266.431915 248.669724,267.835175 
	C246.220261,273.042389 240.528366,277.159271 242.597839,284.324738 
	C238.109833,284.197632 239.051712,281.325348 238.937988,279.388916 
	C238.804901,277.122711 237.930023,275.293640 236.736481,273.444519 
	C235.515823,271.553375 233.608505,269.980469 233.504990,267.247803 
	C238.174210,265.817749 237.954208,271.412262 241.020859,272.342926 
	C243.125320,271.810028 243.443008,269.482910 245.038681,267.877686 
z"/>
<path fill="#000000" opacity="1.000000" stroke="none" 
	d="
M116.160011,270.349976 
	C115.771729,275.245819 117.189369,279.903076 114.433800,284.141235 
	C111.740753,278.664490 112.879967,273.011169 113.009026,267.506592 
	C115.875526,266.730896 115.930466,268.392609 116.160011,270.349976 
z"/>
</svg>